{"title":"Sherlyn Chopra Ft. Ikka - Bad Girl [Music Video] 720p [Sbyky]","uid":9738402,"size":58539813,"categoryP":"video","categoryS":"music_videos","magnet":"?xt=urn:btih:5b93215d6734f80dbb2e13f10103efbc959bacac&amp;dn=Sherlyn+Chopra+Ft.+Ikka+-+Bad+Girl+%5BMusic+Video%5D+720p+%5BSbyky%5D&amp;tr=udp%3A%2F%2Ftracker.openbittorrent.com%3A80&amp;tr=udp%3A%2F%2Fopen.demonii.com%3A1337&amp;tr=udp%3A%2F%2Ftracker.coppersurfer.tk%3A6969&amp;tr=udp%3A%2F%2Fexodus.desync.com%3A6969","seeders":0,"leechers":3,"uploader":"Sbyky","files":1,"time":1394471833,"description":"\n\nGeneral\nComplete name                            : Sherlyn Chopra Ft. Ikka - Bad Girl [Music Video] 720p [Sbyky].MP4\nFormat                                   : MPEG-4\nFormat profile                           : Base Media / Version 2\nCodec ID                                 : mp42\nFile size                                : 55.8 MiB\nDuration                                 : 4mn 14s\nOverall bit rate mode                    : Variable\nOverall bit rate                         : 1 841 Kbps\nEncoded date                             : UTC 2014-01-07 03:39:28\nTagged date                              : UTC 2014-01-07 03:39:28\n\nVideo\nID                                       : 1\nFormat                                   : AVC\nFormat/Info                              : Advanced Video Codec\nFormat profile                           : &lt;a class=&quot;__cf_email__&quot; href=&quot;/cdn-cgi/l/email-protection&quot; data-cfemail=&quot;551d3c323d1519667b64&quot;&gt;[email&amp;#160;protected]&lt;/a&gt;&lt;script cf-hash='f9e31' type=&quot;text/javascript&quot;&gt;\n/* &lt;![CDATA[ */!function(){try{var t=&quot;currentScript&quot;in document?document.currentScript:function(){for(var t=document.getElementsByTagName(&quot;script&quot;),e=t.length;e--;)if(t[e].getAttribute(&quot;cf-hash&quot;))return t[e]}();if(t&amp;&amp;t.previousSibling){var e,r,n,i,c=t.previousSibling,a=c.getAttribute(&quot;data-cfemail&quot;);if(a){for(e=&quot;&quot;,r=parseInt(a.substr(0,2),16),n=2;a.length-n;n+=2)i=parseInt(a.substr(n,2),16)^r,e+=String.fromCharCode(i);e=document.createTextNode(e),c.parentNode.replaceChild(e,c)}}}catch(u){}}();/* ]]&gt; */&lt;/script&gt;\nFormat settings, CABAC                   : Yes\nFormat settings, ReFrames                : 1 frame\nCodec ID                                 : avc1\nCodec ID/Info                            : Advanced Video Coding\nDuration                                 : 4mn 14s\nBit rate                                 : 1 646 Kbps\nMaximum bit rate                         : 3 958 Kbps\nWidth                                    : 1 280 pixels\nHeight                                   : 720 pixels\nDisplay aspect ratio                     : 16:9\nFrame rate mode                          : Constant\nFrame rate                               : 24.000 fps\nColor space                              : YUV\nChroma subsampling                       : 4:2:0\nBit depth                                : 8 bits\nScan type                                : Progressive\nBits/(Pixel*Frame)                       : 0.074\nStream size                              : 49.9 MiB (89%)\nTagged date                              : UTC 2014-01-07 03:39:31\n\nAudio\nID                                       : 2\nFormat                                   : AAC\nFormat/Info                              : Advanced Audio Codec\nFormat profile                           : LC\nCodec ID                                 : 40\nDuration                                 : 4mn 14s\nBit rate mode                            : Variable\nBit rate                                 : 192 Kbps\nMaximum bit rate                         : 201 Kbps\nChannel(s)                               : 2 channels\nChannel positions                        : Front: L R\nSampling rate                            : 44.1 KHz\nCompression mode                         : Lossy\nStream size                              : 5.82 MiB (10%)\nTitle                                    : IsoMedia File Produced by Google, 5-11-2011\nEncoded date                             : UTC 2014-01-07 03:39:30\nTagged date                              : UTC 2014-01-07 03:39:31\n\nShared By Sbyky\n","torrent":{"xt":"urn:btih:5b93215d6734f80dbb2e13f10103efbc959bacac","amp;dn":"Sherlyn+Chopra+Ft.+Ikka+-+Bad+Girl+%5BMusic+Video%5D+720p+%5BSbyky%5D","amp;tr":["udp%3A%2F%2Ftracker.openbittorrent.com%3A80","udp%3A%2F%2Fopen.demonii.com%3A1337","udp%3A%2F%2Ftracker.coppersurfer.tk%3A6969","udp%3A%2F%2Fexodus.desync.com%3A6969"],"infoHash":"5b93215d6734f80dbb2e13f10103efbc959bacac","infoHashBuffer":{"type":"Buffer","data":[91,147,33,93,103,52,248,13,187,46,19,241,1,3,239,188,149,155,172,172]},"announce":[],"urlList":[]}}